<?xml version="1.0" encoding="UTF-8" standalone="no"?>
<svg
   xmlns:dc="http://purl.org/dc/elements/1.1/"
   xmlns:cc="http://creativecommons.org/ns#"
   xmlns:rdf="http://www.w3.org/1999/02/22-rdf-syntax-ns#"
   xmlns:svg="http://www.w3.org/2000/svg"
   xmlns="http://www.w3.org/2000/svg"
   xmlns:sodipodi="http://sodipodi.sourceforge.net/DTD/sodipodi-0.dtd"
   xmlns:inkscape="http://www.inkscape.org/namespaces/inkscape"
   sodipodi:docname="logotype.svg"
   inkscape:version="1.0 (4035a4f, 2020-05-01)"
   id="svg8"
   version="1.1"
   viewBox="0 0 508 142.875"
   height="540"
   width="1920">
  <defs
     id="defs2">
    <filter
       id="filter1147"
       inkscape:label="Drop Shadow"
       style="color-interpolation-filters:sRGB;">
      <feFlood
         id="feFlood1137"
         result="flood"
         flood-color="rgb(0,0,0)"
         flood-opacity="0.741176" />
      <feComposite
         id="feComposite1139"
         result="composite1"
         operator="in"
         in2="SourceGraphic"
         in="flood" />
      <feGaussianBlur
         id="feGaussianBlur1141"
         result="blur"
         stdDeviation="2.8"
         in="composite1" />
      <feOffset
         id="feOffset1143"
         result="offset"
         dy="2"
         dx="0" />
      <feComposite
         id="feComposite1145"
         result="composite2"
         operator="over"
         in2="offset"
         in="SourceGraphic" />
    </filter>
  </defs>
  <sodipodi:namedview
     inkscape:snap-text-baseline="false"
     inkscape:window-maximized="1"
     inkscape:window-y="23"
     inkscape:window-x="0"
     inkscape:window-height="1089"
     inkscape:window-width="1920"
     inkscape:pagecheckerboard="true"
     units="px"
     showgrid="false"
     inkscape:document-rotation="0"
     inkscape:current-layer="layer1"
     inkscape:document-units="mm"
     inkscape:cy="585.71429"
     inkscape:cx="807.14286"
     inkscape:zoom="0.35"
     inkscape:pageshadow="2"
     inkscape:pageopacity="0.0"
     borderopacity="1.0"
     bordercolor="#666666"
     pagecolor="#ffffff"
     id="base" />
  <metadata
     id="metadata5">
    <rdf:RDF>
      <cc:Work
         rdf:about="">
        <dc:format>image/svg+xml</dc:format>
        <dc:type
           rdf:resource="http://purl.org/dc/dcmitype/StillImage" />
        <dc:title></dc:title>
      </cc:Work>
    </rdf:RDF>
  </metadata>
  <g
     id="layer1"
     inkscape:groupmode="layer"
     inkscape:label="Layer 1">
    <g
       style="font-style:normal;font-variant:normal;font-weight:normal;font-stretch:normal;font-size:62.6395px;line-height:1.25;font-family:'Bodoni 72 Oldstyle';-inkscape-font-specification:'Bodoni 72 Oldstyle, Normal';font-variant-ligatures:normal;font-variant-caps:normal;font-variant-numeric:normal;font-variant-east-asian:normal;fill:#ffffff;fill-opacity:1;stroke:none;stroke-width:0.652495;filter:url(#filter1147)"
       id="text30"
       aria-label="Lions Tigers &amp; Bears">
      <path
         id="path1149"
         style="font-style:normal;font-variant:normal;font-weight:normal;font-stretch:normal;font-size:62.6395px;font-family:'Bodoni 72 Oldstyle';-inkscape-font-specification:'Bodoni 72 Oldstyle, Normal';font-variant-ligatures:normal;font-variant-caps:normal;font-variant-numeric:normal;font-variant-east-asian:normal;fill:#ffffff;fill-opacity:1;stroke-width:0.652495"
         d="m 39.961251,82.574734 q 0,1.628627 -0.187919,5.386997 h -0.689034 q -0.375837,0 -1.816546,-0.125279 -1.440708,-0.125279 -3.257254,-0.125279 L 7.9524666,87.523254 q -1.0648715,0 -1.0648715,-0.563755 0,-0.438477 1.6912665,-0.563756 2.3803014,-0.125279 2.8187774,-0.501116 0.501116,-0.438476 0.501116,-2.380301 V 48.310928 q 0,-2.317662 -0.501116,-2.693499 -0.438476,-0.375837 -3.3198934,-0.375837 -1.1901505,0 -1.1901505,-0.689034 0,-0.563756 0.751674,-0.563756 h 0.5637555 q 2.0671034,0.187919 8.2057744,0.187919 0.563756,0 2.192383,-0.06264 1.628627,-0.125279 2.693498,-0.125279 h 0.689035 q 1.127511,0 1.127511,0.626395 0,0.375837 -0.375837,0.501116 -0.313198,0.06264 -2.129743,0.125279 -1.816546,0.06264 -2.192383,0.626395 -0.313197,0.501116 -0.313197,3.257254 v 36.957305 q 1.691266,0.06264 4.697962,0.06264 7.328822,0 10.335517,-0.751674 3.006696,-0.751674 4.071568,-2.818777 1.064871,-2.067104 1.25279,-5.574916 0.06264,-0.814313 0.751674,-0.814313 0.814313,0 0.751674,0.939592 l -0.06264,1.565988 q 0,0.125279 0,0.563755 0.06264,0.438477 0.06264,0.876953 z" />
      <path
         id="path1151"
         style="font-style:normal;font-variant:normal;font-weight:normal;font-stretch:normal;font-size:62.6395px;font-family:'Bodoni 72 Oldstyle';-inkscape-font-specification:'Bodoni 72 Oldstyle, Normal';font-variant-ligatures:normal;font-variant-caps:normal;font-variant-numeric:normal;font-variant-east-asian:normal;fill:#ffffff;fill-opacity:1;stroke-width:0.652495"
         d="m 51.014185,48.123009 q 0,2.818778 -2.818778,2.818778 -1.19015,0 -2.004464,-0.751674 -0.814313,-0.814314 -0.814313,-1.941825 0,-2.944056 2.818777,-2.944056 2.818778,0 2.818778,2.818777 z m 4.697962,39.024408 q 0,0.563756 -1.064871,0.563756 0.06264,0 -1.503348,-0.125279 -1.879185,-0.125279 -3.131975,-0.125279 l -6.514508,0.125279 q -0.313198,0.06264 -0.751674,0.06264 -0.689035,0 -0.689035,-0.438476 0,-0.626395 1.25279,-0.626395 2.380301,-0.06264 2.56822,-0.313198 0.250558,-0.313197 0.250558,-2.630859 l -0.06264,-18.979768 q -0.06264,-1.565987 -0.187918,-1.816545 -0.06264,-0.313198 -0.751674,-0.313198 l -1.816546,0.06264 q -0.250558,0.06264 -0.626395,0.06264 -0.689034,0 -0.689034,-0.501116 0,-0.438476 1.064871,-0.501116 4.196847,-0.187918 7.203543,-2.004464 l 0.626395,-0.375837 q 0.501116,0.939593 0.501116,3.445173 0,-0.125279 0,0.626395 -0.06264,0.751674 -0.06264,2.44294 v 17.100583 q 0,2.50558 0.06264,2.944057 0.125279,0.438476 0.689034,0.563755 0.939593,0.250558 2.756138,0.250558 0.876953,0 0.876953,0.501116 z" />
      <path
         id="path1153"
         style="font-style:normal;font-variant:normal;font-weight:normal;font-stretch:normal;font-size:62.6395px;font-family:'Bodoni 72 Oldstyle';-inkscape-font-specification:'Bodoni 72 Oldstyle, Normal';font-variant-ligatures:normal;font-variant-caps:normal;font-variant-numeric:normal;font-variant-east-asian:normal;fill:#ffffff;fill-opacity:1;stroke-width:0.652495"
         d="m 84.523382,73.993122 q 0,6.076032 -3.695731,10.210239 -3.69573,4.071567 -9.208006,4.071567 -5.700194,0 -9.521204,-4.071567 -3.821009,-4.134207 -3.821009,-10.210239 0,-6.263949 3.69573,-10.398156 3.75837,-4.134207 9.333285,-4.134207 5.637555,0 9.395925,4.196846 3.82101,4.134207 3.82101,10.335517 z m -5.700195,-0.06264 q 0,-6.890345 -2.129743,-10.711354 -1.565987,-2.818778 -5.261718,-2.818778 -3.507812,0 -5.512275,3.633091 -1.941825,3.570452 -1.941825,9.95968 0,6.32659 2.067103,9.897041 2.129743,3.507812 5.888113,3.507812 2.881417,0 4.259486,-2.192382 2.630859,-4.134207 2.630859,-11.27511 z" />
      <path
         id="path1155"
         style="font-style:normal;font-variant:normal;font-weight:normal;font-stretch:normal;font-size:62.6395px;font-family:'Bodoni 72 Oldstyle';-inkscape-font-specification:'Bodoni 72 Oldstyle, Normal';font-variant-ligatures:normal;font-variant-caps:normal;font-variant-numeric:normal;font-variant-east-asian:normal;fill:#ffffff;fill-opacity:1;stroke-width:0.652495"
         d="m 116.81209,87.147417 q 0,0.501116 -0.93959,0.501116 h -0.75168 q -1.12751,-0.125279 -3.06933,-0.125279 -6.13867,0 -7.26618,0.125279 h -0.43848 q -0.81431,0 -0.81431,-0.438476 0,-0.313198 0.31319,-0.375837 0.37584,-0.06264 2.44294,-0.125279 1.19015,-0.06264 1.37807,-0.313198 0.18792,-0.313197 0.18792,-2.067103 V 72.301856 q 0,-6.827705 -0.50112,-8.143135 -1.06487,-2.818777 -4.25948,-2.818777 -3.131976,0 -5.261719,2.756138 -0.626395,0.814313 -0.626395,2.255022 l 0.06264,19.543523 q 0,0.751674 1.31543,0.814314 l 1.879185,0.06264 q 0.62639,0 0.62639,0.438477 0,0.438476 -0.75167,0.438476 h -1.002231 q -1.378069,-0.125279 -4.384765,-0.125279 -0.689035,0 -3.006696,0.06264 -2.255022,0.06264 -2.630859,0.06264 h -0.375837 q -0.939593,0 -0.939593,-0.438476 0,-0.438477 1.127511,-0.563756 0.814314,0 1.565988,0 0.939592,0 1.127511,-0.438476 l 0.187918,-0.939593 V 71.612821 q 0,-7.140902 -0.125279,-7.892576 -0.125279,-0.751674 -1.565987,-0.751674 -0.438477,0 -1.503348,0.125279 h -0.313198 q -1.25279,0 -1.25279,-0.438477 0,-0.563755 1.31543,-0.563755 1.879185,-0.06264 4.071567,-0.689035 2.192383,-0.626395 3.069336,-1.440708 0.563755,-0.501116 0.876953,-0.501116 0.438476,0 0.438476,1.19015 v 3.006696 q 3.257253,-4.196846 8.393693,-4.196846 4.51004,0 6.51451,3.319893 1.12751,1.879185 1.12751,7.140903 v 14.281806 q 0,2.004464 0.18792,2.192382 0.37583,0.375837 1.81654,0.375837 0.18792,0 0.68904,-0.06264 h 0.43847 q 0.6264,0 0.6264,0.438476 z" />
      <path
         id="path1157"
         style="font-style:normal;font-variant:normal;font-weight:normal;font-stretch:normal;font-size:62.6395px;font-family:'Bodoni 72 Oldstyle';-inkscape-font-specification:'Bodoni 72 Oldstyle, Normal';font-variant-ligatures:normal;font-variant-caps:normal;font-variant-numeric:normal;font-variant-east-asian:normal;fill:#ffffff;fill-opacity:1;stroke-width:0.652495"
         d="m 138.0645,79.568038 q 0,3.633091 -2.6935,6.20131 -2.63086,2.50558 -6.32659,2.50558 -2.12974,0 -5.19908,-1.503348 -0.81431,-0.438476 -1.44071,-0.438476 -0.87695,0 -1.31543,1.19015 -0.25056,0.751674 -0.68903,0.751674 -0.43848,0 -0.43848,-0.501116 0,-0.313197 0.0626,-0.751674 0.18792,-1.25279 0.18792,-3.69573 0,-0.187919 -0.0626,-1.503348 -0.0626,-1.31543 -0.0626,-1.753906 v -0.689035 q 0,-0.689034 0.43848,-0.689034 0.50111,0 0.56375,0.689034 0.37584,2.881417 1.62863,4.510044 2.50558,3.257254 6.70243,3.257254 2.25502,0 3.63309,-1.315429 1.37807,-1.31543 1.37807,-3.507812 0,-2.442941 -1.56599,-3.883649 -0.87695,-0.814314 -1.62863,-1.127511 -0.68903,-0.375837 -4.19684,-1.691267 -6.95299,-2.630859 -6.95299,-7.892576 0,-3.507812 2.3803,-5.888113 2.3803,-2.380301 5.88811,-2.380301 1.25279,0 3.75837,0.751674 0.6264,0.187918 1.12752,0.187918 1.31543,0 1.62862,-1.25279 0.18792,-0.626395 0.56376,-0.626395 0.43847,0 0.43847,0.501116 0,0.06264 -0.0626,0.375837 l -0.0626,2.630859 q -0.0626,1.503348 0.31319,4.823242 v 0.125279 q 0,0.501116 -0.50111,0.501116 -0.37584,0 -0.9396,-1.879185 -0.68903,-2.255022 -2.44294,-3.633091 -1.69126,-1.378069 -3.94628,-1.378069 -2.12975,0 -3.50782,1.315429 -1.37807,1.31543 -1.37807,3.319894 0,3.131974 4.19685,4.760601 6.51451,2.56822 8.26842,4.259486 2.25502,2.192383 2.25502,5.324358 z" />
      <path
         id="path1159"
         style="font-style:normal;font-variant:normal;font-weight:normal;font-stretch:normal;font-size:62.6395px;font-family:'Bodoni 72 Oldstyle';-inkscape-font-specification:'Bodoni 72 Oldstyle, Normal';font-variant-ligatures:normal;font-variant-caps:normal;font-variant-numeric:normal;font-variant-east-asian:normal;fill:#ffffff;fill-opacity:1;stroke-width:0.652495"
         d="m 187.04075,55.138633 q 0,0.814314 -0.75167,0.814314 -0.75167,0 -1.06487,-1.628627 -0.12528,-1.127511 -0.25056,-2.255022 -0.43848,-2.255022 -1.44071,-3.82101 -1.31543,-2.067103 -4.32212,-2.630859 -1.94183,-0.375837 -3.13198,-0.313197 -2.94406,0.125279 -3.57045,0.187918 v 37.771618 q 0,2.255022 1.19015,2.818778 0.6264,0.313197 3.50781,0.375837 0.75168,0.06264 0.75168,0.563755 0,0.563756 -1.00224,0.563756 -0.50111,0 -0.87695,-0.06264 -3.75837,-0.125279 -5.32436,-0.125279 -2.0671,0 -3.88365,0.06264 -1.81654,0.06264 -4.63532,0.06264 -1.44071,0 -1.44071,-0.501116 0,-0.563755 2.6935,-0.626395 1.94183,0 2.50558,-0.814313 0.3132,-0.501116 0.3132,-2.56822 V 45.49215 q -6.20131,0.06264 -7.70466,0.626395 -3.94629,1.440709 -4.63532,7.704659 -0.18792,1.879185 -0.87696,1.879185 -0.75167,0 -0.75167,-1.31543 0,-0.689034 0.0626,-1.378069 l 0.12528,-1.440708 q 0.18792,-2.881417 0.56375,-7.57938 h 2.81878 l 12.77846,0.187919 q 2.25502,0.06264 7.01562,-0.06264 l 10.39816,-0.187918 q 0.12528,3.507812 0.81431,10.398157 0,0.187918 0.0626,0.501116 0.0626,0.250558 0.0626,0.313197 z" />
      <path
         id="path1161"
         style="font-style:normal;font-variant:normal;font-weight:normal;font-stretch:normal;font-size:62.6395px;font-family:'Bodoni 72 Oldstyle';-inkscape-font-specification:'Bodoni 72 Oldstyle, Normal';font-variant-ligatures:normal;font-variant-caps:normal;font-variant-numeric:normal;font-variant-east-asian:normal;fill:#ffffff;fill-opacity:1;stroke-width:0.652495"
         d="m 198.43723,48.123009 q 0,2.818778 -2.81878,2.818778 -1.19015,0 -2.00446,-0.751674 -0.81431,-0.814314 -0.81431,-1.941825 0,-2.944056 2.81877,-2.944056 2.81878,0 2.81878,2.818777 z m 4.69796,39.024408 q 0,0.563756 -1.06487,0.563756 0.0626,0 -1.50335,-0.125279 -1.87918,-0.125279 -3.13197,-0.125279 l -6.51451,0.125279 q -0.3132,0.06264 -0.75167,0.06264 -0.68904,0 -0.68904,-0.438476 0,-0.626395 1.25279,-0.626395 2.3803,-0.06264 2.56822,-0.313198 0.25056,-0.313197 0.25056,-2.630859 l -0.0626,-18.979768 q -0.0626,-1.565987 -0.18792,-1.816545 -0.0626,-0.313198 -0.75167,-0.313198 l -1.81655,0.06264 q -0.25056,0.06264 -0.62639,0.06264 -0.68904,0 -0.68904,-0.501116 0,-0.438476 1.06487,-0.501116 4.19685,-0.187918 7.20355,-2.004464 l 0.62639,-0.375837 q 0.50112,0.939593 0.50112,3.445173 0,-0.125279 0,0.626395 -0.0626,0.751674 -0.0626,2.44294 v 17.100583 q 0,2.50558 0.0626,2.944057 0.12528,0.438476 0.68903,0.563755 0.93959,0.250558 2.75614,0.250558 0.87695,0 0.87695,0.501116 z" />
      <path
         id="path1163"
         style="font-style:normal;font-variant:normal;font-weight:normal;font-stretch:normal;font-size:62.6395px;font-family:'Bodoni 72 Oldstyle';-inkscape-font-specification:'Bodoni 72 Oldstyle, Normal';font-variant-ligatures:normal;font-variant-caps:normal;font-variant-numeric:normal;font-variant-east-asian:normal;fill:#ffffff;fill-opacity:1;stroke-width:0.652495"
         d="m 234.57728,63.156489 q 0,2.881417 -2.56822,2.881417 -0.87695,0 -1.62863,-0.563755 -0.68903,-0.626395 -0.68903,-1.378069 0,-0.250558 0.18792,-0.751674 0.18792,-0.563756 0.18792,-0.876953 0,-0.814314 -0.87696,-0.814314 -0.75167,0 -1.44071,0.814314 -0.68903,0.751674 -0.68903,1.565987 0,0.187919 0.3132,2.129743 0.31319,1.941824 0.31319,2.944056 0,4.259486 -2.94405,7.140903 -2.94406,2.881417 -7.32882,2.881417 -1.12751,0 -4.13421,-0.939592 -0.81431,-0.250558 -1.06487,-0.250558 -1.31543,0 -2.3803,1.064871 -1.06487,1.064872 -1.06487,2.317662 0,3.257254 3.94628,3.257254 1.50335,0 4.82325,-0.563756 2.56821,-0.438476 4.69796,-0.438476 3.82101,0 5.95075,2.004464 2.19238,2.004464 2.19238,5.574915 0,5.386997 -4.63532,8.957445 -4.57268,3.57046 -11.58831,3.57046 -5.19908,0 -8.20577,-2.12975 -2.94406,-2.067101 -2.94406,-5.762832 0,-3.570451 2.75614,-5.386997 1.37807,-0.876953 4.38476,-1.565987 -4.4474,-1.753906 -4.4474,-5.386997 0,-4.510044 5.76283,-6.26395 -3.75837,-2.944057 -3.75837,-7.767298 0,-4.510044 2.88142,-7.203542 2.88142,-2.756138 7.57938,-2.756138 2.56822,0 4.13421,0.689034 1.62862,0.689035 3.75837,2.756138 2.00446,-2.944056 4.94852,-2.944056 3.57045,0 3.57045,3.194614 z m -11.65095,6.20131 q 0,-9.082727 -5.01116,-9.082727 -4.88588,0 -4.88588,8.456332 0,9.521204 5.19908,9.521204 4.69796,0 4.69796,-8.894809 z m 4.82324,23.990929 q 0,-5.199079 -6.13867,-5.199079 -1.7539,0 -5.19908,0.563756 -3.38253,0.563755 -5.0738,0.563755 -3.19461,1.691267 -3.19461,5.950753 0,3.194614 2.25502,5.136437 2.31766,1.94183 6.07603,1.94183 4.76061,0 8.01786,-2.630863 3.25725,-2.568219 3.25725,-6.326589 z" />
      <path
         id="path1165"
         style="font-style:normal;font-variant:normal;font-weight:normal;font-stretch:normal;font-size:62.6395px;font-family:'Bodoni 72 Oldstyle';-inkscape-font-specification:'Bodoni 72 Oldstyle, Normal';font-variant-ligatures:normal;font-variant-caps:normal;font-variant-numeric:normal;font-variant-east-asian:normal;fill:#ffffff;fill-opacity:1;stroke-width:0.652495"
         d="m 258.30493,80.695549 q 0,0.626395 -1.00223,2.255022 -0.93959,1.565987 -1.94182,2.568219 -2.6935,2.756138 -7.20355,2.756138 -5.63755,0 -9.45856,-4.071567 -3.75837,-4.071568 -3.75837,-10.08496 0,-6.26395 3.57045,-10.460796 3.63309,-4.196846 9.02009,-4.196846 4.4474,0 7.4541,2.630859 3.0067,2.568219 3.19461,6.639786 -2.00446,0.313198 -5.32435,0.250558 l -4.38477,-0.06264 q -0.43848,0 -7.51674,0.187918 -0.3132,2.067104 -0.3132,3.946289 0,6.326589 2.3803,9.771762 2.44295,3.382533 6.82771,3.382533 2.50558,0 4.00893,-1.127511 1.50335,-1.127511 3.25725,-4.322126 0.25056,-0.501116 0.68904,-0.501116 0.50111,0 0.50111,0.438477 z M 252.8553,67.917091 q -0.25056,-7.51674 -5.387,-7.51674 -5.0738,0 -6.32659,7.51674 z" />
      <path
         id="path1167"
         style="font-style:normal;font-variant:normal;font-weight:normal;font-stretch:normal;font-size:62.6395px;font-family:'Bodoni 72 Oldstyle';-inkscape-font-specification:'Bodoni 72 Oldstyle, Normal';font-variant-ligatures:normal;font-variant-caps:normal;font-variant-numeric:normal;font-variant-east-asian:normal;fill:#ffffff;fill-opacity:1;stroke-width:0.652495"
         d="m 281.02349,63.720245 q 0,1.440708 -0.87695,2.380301 -0.87695,0.939592 -2.25502,0.939592 -1.12751,0 -1.87919,-0.626395 -0.75167,-0.689034 -0.75167,-1.691266 0,-0.876953 0.56375,-1.503348 0.56376,-0.626395 0.56376,-0.876953 0,-0.939593 -1.37807,-0.939593 -1.75391,0 -3.0067,2.192383 -1.44071,2.568219 -1.44071,9.521203 V 85.51879 q 0,0.751674 0.50112,0.939593 0.56376,0.187918 3.25725,0.250558 0.68904,0.125279 0.68904,0.501116 0,0.438476 -0.81431,0.438476 -1.44071,0 -2.6935,-0.06264 -1.25279,-0.06264 -4.7606,-0.06264 -1.81655,0 -2.63086,0.06264 -0.81432,0.06264 -2.06711,0.06264 -1.00223,0 -1.00223,-0.438476 0,-0.438477 0.81431,-0.438477 h 0.87696 q 2.12974,0 2.50558,-0.501116 0.12528,-0.250558 0.12528,-2.317661 V 66.726941 q 0,-3.445173 -1.06488,-3.946289 -1.00223,-0.563755 -3.25725,-0.626395 -0.75167,0 -0.75167,-0.438476 0,-0.438477 0.62639,-0.438477 h 0.43848 q 0.93959,0 1.87918,0.125279 0.9396,0.06264 0.81432,0.06264 2.31766,0 5.13644,-1.31543 l 0.81431,-0.375837 0.50112,-0.187918 q 0.25055,1.503348 0.25055,3.006696 v 1.25279 q 2.00447,-4.384765 5.63756,-4.384765 2.00446,0 3.31989,1.25279 1.31543,1.19015 1.31543,3.006696 z" />
      <path
         id="path1169"
         style="font-style:normal;font-variant:normal;font-weight:normal;font-stretch:normal;font-size:62.6395px;font-family:'Bodoni 72 Oldstyle';-inkscape-font-specification:'Bodoni 72 Oldstyle, Normal';font-variant-ligatures:normal;font-variant-caps:normal;font-variant-numeric:normal;font-variant-east-asian:normal;fill:#ffffff;fill-opacity:1;stroke-width:0.652495"
         d="m 302.12617,79.568038 q 0,3.633091 -2.6935,6.20131 -2.63086,2.50558 -6.32659,2.50558 -2.12975,0 -5.19908,-1.503348 -0.81431,-0.438476 -1.44071,-0.438476 -0.87695,0 -1.31543,1.19015 -0.25056,0.751674 -0.68903,0.751674 -0.43848,0 -0.43848,-0.501116 0,-0.313197 0.0626,-0.751674 0.18792,-1.25279 0.18792,-3.69573 0,-0.187919 -0.0626,-1.503348 -0.0626,-1.31543 -0.0626,-1.753906 v -0.689035 q 0,-0.689034 0.43848,-0.689034 0.50111,0 0.56375,0.689034 0.37584,2.881417 1.62863,4.510044 2.50558,3.257254 6.70242,3.257254 2.25503,0 3.6331,-1.315429 1.37806,-1.31543 1.37806,-3.507812 0,-2.442941 -1.56598,-3.883649 -0.87696,-0.814314 -1.62863,-1.127511 -0.68903,-0.375837 -4.19685,-1.691267 -6.95298,-2.630859 -6.95298,-7.892576 0,-3.507812 2.3803,-5.888113 2.3803,-2.380301 5.88811,-2.380301 1.25279,0 3.75837,0.751674 0.6264,0.187918 1.12751,0.187918 1.31543,0 1.62863,-1.25279 0.18792,-0.626395 0.56376,-0.626395 0.43847,0 0.43847,0.501116 0,0.06264 -0.0626,0.375837 l -0.0626,2.630859 q -0.0626,1.503348 0.3132,4.823242 v 0.125279 q 0,0.501116 -0.50111,0.501116 -0.37584,0 -0.9396,-1.879185 -0.68903,-2.255022 -2.44294,-3.633091 -1.69126,-1.378069 -3.94629,-1.378069 -2.12974,0 -3.50781,1.315429 -1.37807,1.31543 -1.37807,3.319894 0,3.131974 4.19685,4.760601 6.51451,2.56822 8.26841,4.259486 2.25503,2.192383 2.25503,5.324358 z" />
      <path
         id="path1171"
         style="font-style:normal;font-variant:normal;font-weight:normal;font-stretch:normal;font-size:62.6395px;font-family:'Bodoni 72 Oldstyle';-inkscape-font-specification:'Bodoni 72 Oldstyle, Normal';font-variant-ligatures:normal;font-variant-caps:normal;font-variant-numeric:normal;font-variant-east-asian:normal;fill:#ffffff;fill-opacity:1;stroke-width:0.652495"
         d="m 360.37304,61.402583 q 0,0.375837 -0.43847,0.438477 -0.37584,0.06264 -2.88142,0.187918 -1.94182,0.06264 -2.50558,0.438477 -0.56375,0.375837 -0.81431,1.941824 -1.44071,7.829937 -5.44964,14.093887 1.25279,2.004464 1.81655,3.131975 1.50334,3.006696 2.88141,3.75837 1.44071,0.751674 5.7002,0.939593 1.31543,0.06264 1.31543,0.689034 0,0.501116 -0.87696,0.501116 -1.56598,0 -5.76283,-0.187918 -1.44071,-0.06264 -1.94182,-0.06264 -2.06711,0 -4.51005,0.250558 -0.25056,-0.689034 -2.12974,-4.008928 l -0.3132,-0.501116 q -5.01116,5.324358 -13.09165,5.324358 -6.20131,0 -10.08496,-3.319894 -3.88365,-3.319893 -3.88365,-8.644251 0,-8.894808 11.02455,-14.031247 -0.12528,-0.187919 -0.81431,-0.876953 -3.19462,-3.319894 -4.00893,-4.635323 -0.75168,-1.378069 -0.75168,-3.570452 0,-4.447404 2.88142,-7.203542 2.94406,-2.756138 7.57938,-2.756138 4.44741,0 7.1409,2.317661 2.75614,2.255022 2.75614,5.950753 0,5.950752 -8.70689,9.458564 0.37584,0.438477 3.13198,3.633091 5.51227,6.326589 9.70912,12.402621 4.4474,-7.140903 4.4474,-13.279574 0,-1.378069 -0.56375,-1.565987 -0.56376,-0.250558 -4.00893,-0.250558 -1.87919,0 -1.87919,-0.626395 0,-0.501116 1.06488,-0.501116 h 10.1476 q 2.88141,0 3.13197,0.06264 0.68903,0.187919 0.68903,0.501116 z m -21.98646,-9.208006 q 0,-3.507812 -1.56599,-5.700195 Q 335.31725,44.302 332.8743,44.302 q -2.50558,0 -4.1342,1.691266 -1.62863,1.628627 -1.62863,4.134207 0,4.635323 6.76507,10.08496 4.51004,-2.442941 4.51004,-8.017856 z m 5.32436,29.565843 q -3.82101,-6.639787 -14.59501,-18.66657 -3.06933,2.317661 -4.38476,4.760601 -1.25279,2.442941 -1.25279,5.888113 0,5.324358 2.94406,8.894809 3.00669,3.570452 7.4541,3.570452 5.57491,0 9.8344,-4.447405 z" />
      <path
         id="path1173"
         style="font-style:normal;font-variant:normal;font-weight:normal;font-stretch:normal;font-size:62.6395px;font-family:'Bodoni 72 Oldstyle';-inkscape-font-specification:'Bodoni 72 Oldstyle, Normal';font-variant-ligatures:normal;font-variant-caps:normal;font-variant-numeric:normal;font-variant-east-asian:normal;fill:#ffffff;fill-opacity:1;stroke-width:0.652495"
         d="m 405.41478,76.122865 q 0,6.389229 -5.82547,9.458565 -2.81878,1.503348 -8.0805,1.879185 -1.44071,0.06264 -8.51897,0.06264 h -7.64202 q -1.06487,0 -1.06487,-0.563755 0,-0.563756 1.94182,-0.563756 2.25503,0 2.63086,-0.438476 0.43848,-0.501116 0.43848,-2.881417 V 49.187881 q 0,-2.756138 -0.25056,-3.194615 -0.43847,-0.751674 -3.19461,-0.814313 -1.69127,0 -1.69127,-0.626395 0,-0.563756 1.56599,-0.563756 0.0626,0 0.75167,0 0.68904,0.06264 1.25279,0.06264 l 12.21471,0.125279 q 6.76506,0.06264 10.08495,2.255022 3.88365,2.568219 3.88365,7.4541 0,4.259486 -3.19461,7.015624 -3.19462,2.693499 -8.95745,3.382533 v 0.375837 q 5.7002,0.375837 8.89481,2.380301 4.7606,3.006696 4.7606,9.082727 z m -8.39369,-21.610627 q 0,-6.013392 -2.75614,-8.017856 -1.44071,-1.064871 -5.44964,-1.064871 -1.06487,0 -3.31989,0.187918 v 18.165455 h 0.56376 l 3.44517,-0.125279 q 3.57045,-0.125279 5.51227,-2.50558 2.00447,-2.44294 2.00447,-6.639787 z m 1.81654,20.921593 q 0,-7.892577 -6.38922,-9.771762 -1.87919,-0.563755 -6.95299,-0.563755 v 18.66657 q 0,1.816546 0.37584,2.067104 0.62639,0.438476 3.50781,0.438476 4.32213,0 6.89034,-2.756138 2.56822,-2.756138 2.56822,-8.080495 z" />
      <path
         id="path1175"
         style="font-style:normal;font-variant:normal;font-weight:normal;font-stretch:normal;font-size:62.6395px;font-family:'Bodoni 72 Oldstyle';-inkscape-font-specification:'Bodoni 72 Oldstyle, Normal';font-variant-ligatures:normal;font-variant-caps:normal;font-variant-numeric:normal;font-variant-east-asian:normal;fill:#ffffff;fill-opacity:1;stroke-width:0.652495"
         d="m 433.62213,80.695549 q 0,0.626395 -1.00223,2.255022 -0.93959,1.565987 -1.94182,2.568219 -2.6935,2.756138 -7.20355,2.756138 -5.63755,0 -9.45856,-4.071567 -3.75837,-4.071568 -3.75837,-10.08496 0,-6.26395 3.57045,-10.460796 3.63309,-4.196846 9.02009,-4.196846 4.4474,0 7.4541,2.630859 3.00669,2.568219 3.19461,6.639786 -2.00446,0.313198 -5.32435,0.250558 l -4.38477,-0.06264 q -0.43848,0 -7.51674,0.187918 -0.3132,2.067104 -0.3132,3.946289 0,6.326589 2.3803,9.771762 2.44294,3.382533 6.82771,3.382533 2.50558,0 4.00893,-1.127511 1.50335,-1.127511 3.25725,-4.322126 0.25056,-0.501116 0.68904,-0.501116 0.50111,0 0.50111,0.438477 z M 428.1725,67.917091 q -0.25056,-7.51674 -5.387,-7.51674 -5.0738,0 -6.32659,7.51674 z" />
      <path
         id="path1177"
         style="font-style:normal;font-variant:normal;font-weight:normal;font-stretch:normal;font-size:62.6395px;font-family:'Bodoni 72 Oldstyle';-inkscape-font-specification:'Bodoni 72 Oldstyle, Normal';font-variant-ligatures:normal;font-variant-caps:normal;font-variant-numeric:normal;font-variant-east-asian:normal;fill:#ffffff;fill-opacity:1;stroke-width:0.652495"
         d="m 462.10353,84.704477 q 0,1.064871 -2.25503,2.255022 -2.19238,1.127511 -4.25948,1.127511 -4.32213,0 -4.51005,-4.447405 -2.3803,4.635323 -7.39146,4.635323 -2.6935,0 -4.4474,-1.565987 -1.75391,-1.628627 -1.75391,-4.134207 0,-5.136439 6.20131,-8.143135 2.12975,-1.002232 7.39146,-2.004464 v -1.565988 q 0,-5.512275 -0.56375,-7.266181 -1.00223,-3.194615 -4.51005,-3.194615 -2.19238,0 -3.69573,1.190151 -1.44071,1.19015 -1.44071,3.006696 0,0.501116 0.75168,0.501116 0.81431,0 1.44071,0.751674 0.62639,0.751674 0.62639,1.691266 0,2.756138 -2.75614,2.756138 -1.4407,0 -2.3803,-0.939593 -0.93959,-1.002232 -0.93959,-2.505579 0,-2.944057 2.31766,-5.0738 2.56822,-2.317661 7.14091,-2.317661 6.89034,0 8.45633,3.75837 0.56375,1.440708 0.56375,5.700194 v 11.713586 q 0,2.881417 0.0626,3.382533 0.3132,2.255022 1.81655,2.255022 1.7539,0 2.88142,-1.25279 0.62639,-0.689034 0.93959,-0.689034 0.3132,0 0.3132,0.375837 z M 451.07897,78.06469 v -4.572684 q -4.69796,1.064872 -6.76506,2.818778 -2.00447,1.691266 -2.00447,4.572683 0,2.004464 1.12751,3.319894 1.19015,1.25279 2.94406,1.25279 2.6935,0 4.32213,-3.006696 0.37583,-0.689035 0.37583,-4.384765 z" />
      <path
         id="path1179"
         style="font-style:normal;font-variant:normal;font-weight:normal;font-stretch:normal;font-size:62.6395px;font-family:'Bodoni 72 Oldstyle';-inkscape-font-specification:'Bodoni 72 Oldstyle, Normal';font-variant-ligatures:normal;font-variant-caps:normal;font-variant-numeric:normal;font-variant-east-asian:normal;fill:#ffffff;fill-opacity:1;stroke-width:0.652495"
         d="m 481.17626,63.720245 q 0,1.440708 -0.87695,2.380301 -0.87695,0.939592 -2.25502,0.939592 -1.12751,0 -1.87919,-0.626395 -0.75167,-0.689034 -0.75167,-1.691266 0,-0.876953 0.56375,-1.503348 0.56376,-0.626395 0.56376,-0.876953 0,-0.939593 -1.37807,-0.939593 -1.75391,0 -3.0067,2.192383 -1.4407,2.568219 -1.4407,9.521203 V 85.51879 q 0,0.751674 0.50111,0.939593 0.56376,0.187918 3.25726,0.250558 0.68903,0.125279 0.68903,0.501116 0,0.438476 -0.81431,0.438476 -1.44071,0 -2.6935,-0.06264 -1.25279,-0.06264 -4.7606,-0.06264 -1.81655,0 -2.63086,0.06264 -0.81432,0.06264 -2.06711,0.06264 -1.00223,0 -1.00223,-0.438476 0,-0.438477 0.81432,-0.438477 h 0.87695 q 2.12974,0 2.50558,-0.501116 0.12528,-0.250558 0.12528,-2.317661 V 66.726941 q 0,-3.445173 -1.06487,-3.946289 -1.00224,-0.563755 -3.25726,-0.626395 -0.75167,0 -0.75167,-0.438476 0,-0.438477 0.62639,-0.438477 h 0.43848 q 0.93959,0 1.87918,0.125279 0.9396,0.06264 0.81432,0.06264 2.31766,0 5.13644,-1.31543 l 0.81431,-0.375837 0.50112,-0.187918 q 0.25055,1.503348 0.25055,3.006696 v 1.25279 q 2.00447,-4.384765 5.63756,-4.384765 2.00446,0 3.31989,1.25279 1.31543,1.19015 1.31543,3.006696 z" />
      <path
         id="path1181"
         style="font-style:normal;font-variant:normal;font-weight:normal;font-stretch:normal;font-size:62.6395px;font-family:'Bodoni 72 Oldstyle';-inkscape-font-specification:'Bodoni 72 Oldstyle, Normal';font-variant-ligatures:normal;font-variant-caps:normal;font-variant-numeric:normal;font-variant-east-asian:normal;fill:#ffffff;fill-opacity:1;stroke-width:0.652495"
         d="m 502.27894,79.568038 q 0,3.633091 -2.6935,6.20131 -2.63086,2.50558 -6.32659,2.50558 -2.12974,0 -5.19908,-1.503348 -0.81431,-0.438476 -1.44071,-0.438476 -0.87695,0 -1.31543,1.19015 -0.25056,0.751674 -0.68903,0.751674 -0.43848,0 -0.43848,-0.501116 0,-0.313197 0.0626,-0.751674 0.18792,-1.25279 0.18792,-3.69573 0,-0.187919 -0.0626,-1.503348 -0.0626,-1.31543 -0.0626,-1.753906 v -0.689035 q 0,-0.689034 0.43848,-0.689034 0.50111,0 0.56375,0.689034 0.37584,2.881417 1.62863,4.510044 2.50558,3.257254 6.70243,3.257254 2.25502,0 3.63309,-1.315429 1.37807,-1.31543 1.37807,-3.507812 0,-2.442941 -1.56599,-3.883649 -0.87695,-0.814314 -1.62863,-1.127511 -0.68903,-0.375837 -4.19685,-1.691267 -6.95298,-2.630859 -6.95298,-7.892576 0,-3.507812 2.3803,-5.888113 2.3803,-2.380301 5.88811,-2.380301 1.25279,0 3.75837,0.751674 0.6264,0.187918 1.12752,0.187918 1.31542,0 1.62862,-1.25279 0.18792,-0.626395 0.56376,-0.626395 0.43847,0 0.43847,0.501116 0,0.06264 -0.0626,0.375837 l -0.0626,2.630859 q -0.0626,1.503348 0.31319,4.823242 v 0.125279 q 0,0.501116 -0.50111,0.501116 -0.37584,0 -0.9396,-1.879185 -0.68903,-2.255022 -2.44294,-3.633091 -1.69126,-1.378069 -3.94628,-1.378069 -2.12975,0 -3.50782,1.315429 -1.37807,1.31543 -1.37807,3.319894 0,3.131974 4.19685,4.760601 6.51451,2.56822 8.26841,4.259486 2.25503,2.192383 2.25503,5.324358 z" />
    </g>
  </g>
</svg>
